<svg width="26" height="24" viewBox="0 0 26 24" fill="none" xmlns="http://www.w3.org/2000/svg">
<path fill-rule="evenodd" clip-rule="evenodd" d="M1.44444 24H24.5556C25.35 24 26 23.1 26 22C26 20.9 25.35 20 24.5556 20H1.44444C0.65 20 0 20.9 0 22C0 23.1 0.65 24 1.44444 24ZM1.44444 14H24.5556C25.35 14 26 13.1 26 12C26 10.9 25.35 10 24.5556 10H1.44444C0.65 10 0 10.9 0 12C0 13.1 0.65 14 1.44444 14ZM0 2C0 3.1 0.65 4 1.44444 4H24.5556C25.35 4 26 3.1 26 2C26 0.9 25.35 0 24.5556 0H1.44444C0.65 0 0 0.9 0 2Z" fill="#7AA0F8"/>
</svg>
