<svg width="71" height="68" viewBox="0 0 71 68" fill="none" xmlns="http://www.w3.org/2000/svg">
<g clip-path="url(#clip0_54_5321)">
<path d="M61.9461 28.8848C61.9461 48.4264 35.5208 65.1764 35.5208 65.1764C35.5208 65.1764 9.09546 48.4264 9.09546 28.8848C9.09546 22.2212 11.8795 15.8306 16.8353 11.1187C21.791 6.40686 28.5124 3.75977 35.5208 3.75977C42.5292 3.75977 49.2506 6.40686 54.2063 11.1187C59.162 15.8306 61.9461 22.2212 61.9461 28.8848Z" stroke="#7AA0F8" stroke-width="5.58333" stroke-linecap="round" stroke-linejoin="round"/>
<path d="M35.5207 37.2598C40.3855 37.2598 44.3292 33.5102 44.3292 28.8848C44.3292 24.2594 40.3855 20.5098 35.5207 20.5098C30.656 20.5098 26.7123 24.2594 26.7123 28.8848C26.7123 33.5102 30.656 37.2598 35.5207 37.2598Z" stroke="#7AA0F8" stroke-width="5.58333" stroke-linecap="round" stroke-linejoin="round"/>
</g>
<defs>
<clipPath id="clip0_54_5321">
<rect width="70.4675" height="67" fill="white" transform="translate(0.286987 0.968018)"/>
</clipPath>
</defs>
</svg>
