<svg width="12" height="14" viewBox="0 0 12 14" fill="none" xmlns="http://www.w3.org/2000/svg">
<path d="M6.021 -4.71216e-05C7.61627 0.00696771 9.14097 0.637045 10.2562 1.74318C11.3786 2.85632 12.0068 4.3615 11.9998 5.9227V5.9577C11.9574 8.07896 10.7574 10.0322 9.26096 11.5584C8.41391 12.4195 7.4751 13.1826 6.45158 13.8267C6.17629 14.0577 5.77394 14.0577 5.49865 13.8267C3.98102 12.8465 2.63985 11.6144 1.5528 10.1792C0.599872 8.93307 0.056348 7.43488 -0.00012207 5.87369C0.0139954 2.61829 2.71044 -0.00703401 6.021 -4.71216e-05ZM6.021 4.15148C4.96924 4.15148 4.12219 4.98458 4.12219 6.02071C4.12219 7.04353 4.95512 7.86894 5.99982 7.88294H6.021C6.52217 7.88294 7.00216 7.69391 7.3551 7.35087C7.72216 6.99383 7.92757 6.51847 7.92757 6.02071C7.92757 4.98458 7.07275 4.15148 6.021 4.15148Z" fill="white"/>
</svg>
