<svg width="22" height="22" viewBox="0 0 22 22" fill="none" xmlns="http://www.w3.org/2000/svg">
<g clip-path="url(#clip0_218_1219)">
<path fill-rule="evenodd" clip-rule="evenodd" d="M22 11C22 17.0751 17.0751 22 11 22C4.92487 22 0 17.0751 0 11C0 4.92487 4.92487 0 11 0C17.0751 0 22 4.92487 22 11ZM11.3942 8.12068C10.3243 8.5657 8.18596 9.48676 4.97924 10.8839C4.45851 11.091 4.18574 11.2935 4.1609 11.4916C4.11894 11.8264 4.53815 11.9582 5.10902 12.1377C5.18667 12.1621 5.26713 12.1874 5.34961 12.2142C5.91125 12.3968 6.66676 12.6104 7.05951 12.6189C7.41578 12.6266 7.81342 12.4797 8.25242 12.1782C11.2486 10.1558 12.7952 9.13349 12.8923 9.11145C12.9608 9.09591 13.0557 9.07636 13.12 9.13352C13.1844 9.19069 13.178 9.29896 13.1712 9.328C13.1297 9.50504 11.4841 11.0349 10.6325 11.8266C10.367 12.0734 10.1787 12.2485 10.1402 12.2885C10.054 12.3781 9.96612 12.4628 9.88165 12.5442C9.35987 13.0472 8.96859 13.4244 9.90331 14.0404C10.3525 14.3364 10.7119 14.5812 11.0705 14.8254C11.4622 15.0921 11.8528 15.3581 12.3581 15.6894C12.4869 15.7738 12.6099 15.8614 12.7296 15.9468C13.1854 16.2717 13.5949 16.5636 14.1007 16.5171C14.3946 16.49 14.6983 16.2136 14.8525 15.3893C15.2169 13.4412 15.9332 9.22025 16.0987 7.48089C16.1132 7.3285 16.095 7.13347 16.0803 7.04786C16.0657 6.96225 16.035 6.84027 15.9238 6.74997C15.792 6.64302 15.5885 6.62047 15.4975 6.62208C15.0838 6.62936 14.449 6.85008 11.3942 8.12068Z" fill="white"/>
</g>
<defs>
<clipPath id="clip0_218_1219">
<rect width="22" height="22" fill="white"/>
</clipPath>
</defs>
</svg>
