<svg width="75" height="71" viewBox="0 0 75 71" fill="none" xmlns="http://www.w3.org/2000/svg">
<path d="M37.3038 0C16.6725 0 0 15.8521 0 35.4681C0 55.0842 16.6725 70.9363 37.3038 70.9363C57.935 70.9363 74.6075 55.0842 74.6075 35.4681C74.6075 15.8521 57.935 0 37.3038 0ZM37.3038 65.0442C20.1593 65.0442 6.19699 51.769 6.19699 35.4681C6.19699 19.1673 20.1593 5.89205 37.3038 5.89205C54.4483 5.89205 68.4105 19.1673 68.4105 35.4681C68.4105 51.769 54.4483 65.0442 37.3038 65.0442Z" fill="#7AA0F8"/>
<path d="M44.2926 32.4426H40.4861V18.5593C40.4861 16.8945 39.0548 15.5337 37.3038 15.5337C35.5528 15.5337 34.1216 16.8945 34.1216 18.5593V35.4682C34.1216 37.1331 35.5528 38.4939 37.3038 38.4939H44.2926C46.0436 38.4939 47.4748 37.1331 47.4748 35.4682C47.4748 33.8034 46.0283 32.4426 44.2926 32.4426Z" fill="#7AA0F8"/>
</svg>
