<svg width="14" height="12" viewBox="0 0 14 12" fill="none" xmlns="http://www.w3.org/2000/svg">
<path fill-rule="evenodd" clip-rule="evenodd" d="M12.6 0H1.4C0.63 0 0.00699999 0.675 0.00699999 1.5L0 10.5C0 11.325 0.63 12 1.4 12H12.6C13.37 12 14 11.325 14 10.5V1.5C14 0.675 13.37 0 12.6 0ZM12.32 3.1875L7.371 6.5025C7.147 6.6525 6.853 6.6525 6.629 6.5025L1.68 3.1875C1.505 3.0675 1.4 2.865 1.4 2.6475C1.4 2.145 1.911 1.845 2.31 2.1075L7 5.25L11.69 2.1075C12.089 1.845 12.6 2.145 12.6 2.6475C12.6 2.865 12.495 3.0675 12.32 3.1875Z" fill="white"/>
</svg>
