<svg width="14" height="14" viewBox="0 0 14 14" fill="none" xmlns="http://www.w3.org/2000/svg">
<path d="M10.0625 0H3.9375C1.75 0 0 1.75 0 3.9375V6.5625V10.0625C0 12.25 1.75 14 3.9375 14H10.0625C12.25 14 14 12.25 14 10.0625V6.5625V3.9375C14 1.75 12.25 0 10.0625 0ZM7 4.375C8.44375 4.375 9.625 5.55625 9.625 7C9.625 8.44375 8.44375 9.625 7 9.625C5.55625 9.625 4.375 8.44375 4.375 7C4.375 5.55625 5.55625 4.375 7 4.375ZM9.625 3.0625C9.625 2.58125 10.0188 2.1875 10.5 2.1875C10.9812 2.1875 11.375 2.58125 11.375 3.0625C11.375 3.54375 10.9812 3.9375 10.5 3.9375C10.0188 3.9375 9.625 3.54375 9.625 3.0625Z" fill="white"/>
</svg>
