<svg width="68" height="44" viewBox="0 0 68 44" fill="none" xmlns="http://www.w3.org/2000/svg">
<path fill-rule="evenodd" clip-rule="evenodd" d="M30.4472 0.0118429C26.4245 0.112681 23.2103 0.249441 19.7861 0.465422L18.1362 0.569497L17.8506 0.805089C17.1607 1.37433 15.8474 2.61442 15.0573 3.44275C13.2371 5.35124 12.2272 6.80447 10.5477 9.93247C10.2538 10.4797 9.97532 10.9425 9.92881 10.9609C9.88223 10.9792 9.78228 10.9312 9.7067 10.8542C9.58391 10.7291 9.56582 10.6252 9.53745 9.88102C9.49804 8.84629 9.48269 8.82305 8.76484 8.70914C7.36163 8.48649 5.56155 8.87884 4.94479 9.5418C4.62261 9.88801 4.60561 10.9029 4.91338 11.4108C5.23563 11.9426 5.98736 12.2623 7.03082 12.3114L7.66541 12.3413L7.85579 12.0309C7.99565 11.8029 8.13761 11.6733 8.39068 11.5425C8.58017 11.4446 8.79435 11.3659 8.86663 11.3676C8.94043 11.3693 8.85882 11.4255 8.68076 11.4959C8.31396 11.6406 8.07866 11.9007 8.07821 12.1617C8.07796 12.3138 8.09871 12.3374 8.20284 12.3037C8.34537 12.2575 9.24656 12.3725 9.39169 12.4554C9.46828 12.4991 9.35951 12.6601 8.85622 13.248C8.50884 13.6538 8.01615 14.2625 7.76136 14.6007C7.41081 15.0659 7.30909 15.1683 7.34329 15.0214C7.40345 14.763 7.63152 14.3711 7.9643 13.9542C8.114 13.7665 8.27938 13.5525 8.33173 13.4785C8.45376 13.3062 8.48689 13.2866 7.25293 14.1172C5.57685 15.2454 4.23818 16.4727 2.13679 18.8077L1.11745 19.9403L0.885254 20.7817C0.394588 22.5596 0.117717 24.1894 0.0427079 25.7419L0 26.6245L0.296862 26.9481C0.460142 27.1262 0.78556 27.3762 1.02004 27.5038C1.3565 27.6868 1.41171 27.7361 1.282 27.7376C1.01357 27.7406 0.536419 27.5686 0.297115 27.3824C0.174259 27.2868 0.0656167 27.2188 0.0557805 27.2313C0.0396619 27.2517 0.428729 35.3083 0.475372 35.9198C0.494283 36.1682 0.499931 36.1733 0.90702 36.3081C1.38576 36.4667 1.82553 36.7174 2.04446 36.9564C2.12911 37.0487 2.1816 37.1243 2.16116 37.1243C2.14079 37.1243 1.85738 36.9935 1.53139 36.8335C1.20547 36.6735 0.84813 36.5247 0.737458 36.5028C0.53826 36.4634 0.535595 36.4662 0.486414 36.7775C0.392875 37.3695 0.442437 39.1219 0.584966 40.2634C0.747675 41.5665 0.849082 42.0131 1.08255 42.4553C1.33829 42.9395 1.99991 43.6272 2.40421 43.8289L2.74702 44L6.79266 43.9587C9.01779 43.9359 11.0889 43.9003 11.3951 43.8795C12.0914 43.832 12.2067 43.7519 12.2507 43.2851L12.2823 42.9494H11.637C11.0669 42.9494 10.2675 42.835 9.91878 42.7034C9.85278 42.6785 12.3315 42.6682 15.427 42.6805L21.0553 42.7028L21.8802 42.5387C24.3336 42.0508 24.6483 42.0377 33.9692 42.0361C43.4098 42.0344 43.6233 42.0433 46.1216 42.5389L46.9466 42.7026L52.5748 42.6804C55.6703 42.6681 58.1405 42.6823 58.064 42.7118C57.7318 42.84 56.9455 42.9494 56.3564 42.9494H55.7192L55.7522 43.2483C55.7749 43.4537 55.8369 43.5999 55.9507 43.7159L56.1161 43.8847L60.6826 43.9439C64.4089 43.9921 65.286 43.9874 65.4501 43.9181C66.0585 43.661 66.7868 42.8728 67.0968 42.136C67.3968 41.4228 67.6939 38.0972 67.559 36.9625L67.5051 36.5095L67.3022 36.5188C67.1906 36.5238 66.8251 36.6651 66.4898 36.8325C66.1545 36.9999 65.8657 37.1221 65.8478 37.1039C65.8301 37.0857 65.9605 36.9539 66.1377 36.811C66.4407 36.5667 66.9718 36.3178 67.3577 36.239C67.5226 36.2054 67.5302 36.185 67.5673 35.6772C67.6032 35.1872 67.9832 27.4768 67.9832 27.2398C67.9832 27.1565 67.9433 27.1718 67.8028 27.309C67.5917 27.5154 67.0522 27.7395 66.7667 27.7395C66.583 27.7395 66.5978 27.7238 66.9496 27.5445C67.16 27.4372 67.4825 27.1969 67.6661 27.0105L68 26.6716L67.9617 25.636C67.9051 24.1072 67.6646 22.6933 67.1316 20.7558C66.9665 20.1559 66.8647 19.9025 66.7283 19.7526C66.628 19.6422 66.082 19.0358 65.515 18.4049C64.2619 17.0107 63.3222 16.0899 62.2719 15.2274C61.5463 14.6316 60.0248 13.5607 59.752 13.4539C59.6866 13.4282 59.7752 13.5856 59.9623 13.8271C60.4003 14.3923 60.6136 14.7332 60.6824 14.9782C60.7553 15.2375 60.6835 15.2421 60.5361 14.9876C60.3794 14.7171 59.7789 13.9531 59.1334 13.2029C58.8352 12.8564 58.5913 12.5497 58.5913 12.5214C58.5913 12.4387 59.087 12.3257 59.5388 12.3054C60.0217 12.2838 60.0685 12.2186 59.8445 11.8791C59.7468 11.7309 59.5805 11.6054 59.3505 11.5062C59.065 11.3831 59.0428 11.3633 59.2244 11.3942C59.6393 11.465 59.9741 11.6815 60.1872 12.0169L60.3895 12.3354L60.8389 12.3343C61.9604 12.3314 62.8327 11.9368 63.1787 11.2755C63.3571 10.9345 63.3752 10.0258 63.2097 9.70982C62.9963 9.30246 62.0863 8.86829 61.1108 8.70849C60.5665 8.6193 59.2903 8.65684 58.8996 8.77354C58.5447 8.87949 58.5033 8.97146 58.495 9.67164C58.4909 10.0154 58.4823 10.3912 58.4759 10.507C58.464 10.7247 58.2753 10.9762 58.1239 10.9762C58.0763 10.9762 57.7428 10.4301 57.3829 9.76264C56.1078 7.39798 55.3447 6.21348 54.1826 4.79527C53.3771 3.81232 51.9605 2.36828 50.8107 1.35841L49.9192 0.575387L49.3848 0.532605C47.5009 0.38193 44.1888 0.197922 41.616 0.101031C39.8964 0.0362435 31.9918 -0.0268615 30.4472 0.0118429ZM18.2605 1.10566C17.9079 1.45679 17.8426 1.63749 18.0786 1.60914C18.2908 1.58371 21.9728 1.27433 22.8956 1.2045C24.8867 1.05376 28.6511 0.879391 31.4308 0.809232C37.5474 0.654867 44.53 0.950522 49.669 1.58151C49.9418 1.61497 50.0878 1.61018 50.0878 1.56759C50.0878 1.45232 49.8178 1.09589 49.6362 0.971428C49.3747 0.792145 49.4715 0.77564 49.751 0.951817C50.7447 1.57821 52.233 3.37537 54.0057 6.0896C55.1602 7.85725 56.8145 10.6663 56.8145 10.8591C56.8145 10.906 56.6359 10.9146 56.2592 10.8862C53.1244 10.6492 46.5703 10.3811 40.8862 10.2573C37.0664 10.1741 27.2597 10.2127 23.784 10.3244C19.5767 10.4598 15.994 10.6215 12.8463 10.8183C11.9612 10.8737 11.2225 10.9041 11.2047 10.886C11.1261 10.8058 12.9555 7.70891 14.1745 5.8588C15.8346 3.33926 17.2434 1.64319 18.2062 1.00495C18.412 0.868518 18.5888 0.755382 18.5991 0.75344C18.6094 0.751499 18.457 0.910006 18.2605 1.10566ZM42.3485 1.7516C41.3271 1.94758 40.3346 2.64497 39.7811 3.55563C39.4044 4.17542 39.2314 4.72958 39.1923 5.44237C39.0921 7.26569 40.1628 8.86583 41.8839 9.46491C42.2813 9.60322 42.5012 9.63779 43.0121 9.64212C43.7506 9.6484 44.1733 9.55688 44.789 9.25722C46.13 8.60448 46.9783 7.23054 46.9783 5.7113C46.9783 4.97908 46.8912 4.58104 46.5904 3.9384C46.3039 3.32618 45.7735 2.70426 45.2162 2.32699C44.4342 1.79755 43.2974 1.56947 42.3485 1.7516ZM24.4963 1.88687C22.759 2.31618 21.5416 3.95122 21.6076 5.76644L21.6264 6.28377L25.4092 6.30047L29.192 6.31717L29.2307 5.98371C29.2791 5.56709 29.1752 4.78064 29.0146 4.34745C28.5518 3.09907 27.5928 2.22136 26.3249 1.88564C25.8634 1.76344 24.9934 1.76403 24.4963 1.88687ZM25.7688 12.4806L25.7863 13.4348L26.1386 13.2321C26.8364 12.8304 27.6944 12.9156 28.1518 13.4319C28.4633 13.7836 28.5117 14.1065 28.5117 15.8336V17.3191H27.7185H26.9252V15.8922V14.4654L26.7694 14.3065C26.5796 14.1129 26.3323 14.1025 26.0527 14.2764C25.9392 14.3469 25.8407 14.4123 25.8337 14.4217C25.8267 14.4312 25.8052 15.0796 25.7861 15.8628L25.7512 17.2867L24.9739 17.3049L24.1965 17.3231V14.4065V11.49L24.9739 11.5082L25.7512 11.5263L25.7688 12.4806ZM22.2605 13.1484C22.8567 13.3666 23.3715 14.0504 23.3715 14.6244V14.7949H22.6171H21.8627L21.8204 14.5652C21.7312 14.0804 20.9699 13.9025 20.5645 14.2716C20.3603 14.4577 20.357 14.4698 20.3384 15.0969C20.315 15.8906 20.4138 16.1419 20.8001 16.2705C21.2981 16.4363 21.8082 16.2129 21.8849 15.7953L21.9261 15.5715H22.6577H23.3892L23.352 15.8917C23.2558 16.7208 22.6276 17.241 21.543 17.3899C20.5282 17.5292 19.5406 17.1976 19.1351 16.5814C18.8297 16.1174 18.7162 15.6513 18.7549 15.0194C18.8178 13.9905 19.3088 13.3381 20.2158 13.0784C20.6656 12.9496 21.8257 12.9893 22.2605 13.1484ZM32.4779 13.0704C33.3906 13.3185 33.8617 13.92 33.9467 14.9462C33.9847 15.4042 33.9786 15.4423 33.8675 15.4443C33.8013 15.4455 33.0975 15.4446 32.3034 15.4422L30.8597 15.4378V15.6373C30.8597 15.9097 31.0067 16.1778 31.2069 16.2709C31.2985 16.3134 31.5252 16.3482 31.7108 16.3482C32.0903 16.3482 32.3601 16.188 32.3943 15.9424C32.4137 15.8032 32.4423 15.7974 33.1918 15.7799C34.0636 15.7595 34.028 15.7346 33.8759 16.2567C33.7634 16.6432 33.4354 16.9916 32.9856 17.2026C32.699 17.3371 32.5756 17.3514 31.71 17.3514H30.7517L30.3167 17.1249C29.5846 16.7436 29.2728 16.1648 29.2736 15.1876C29.274 14.6081 29.3534 14.2738 29.5743 13.9211C29.9667 13.2949 30.6305 12.9866 31.5895 12.9851C31.9036 12.9846 32.3034 13.0229 32.4779 13.0704ZM37.9108 13.1046C38.454 13.2784 38.9622 13.8001 39.109 14.3345C39.1443 14.4631 39.1915 14.7649 39.2138 15.0052L39.2545 15.4421L37.8017 15.4495C37.0027 15.4536 36.2989 15.4518 36.2379 15.4455C36.097 15.4308 36.0852 15.7549 36.2172 16.0152C36.3364 16.2504 36.5634 16.3482 36.9894 16.3482C37.2752 16.3482 37.3665 16.3195 37.494 16.1893C37.5797 16.1019 37.6498 15.9709 37.6498 15.8981C37.6498 15.7718 37.6862 15.7657 38.4459 15.7657H39.2421L39.1999 16.0084C39.0891 16.6466 38.7143 17.047 38.0289 17.2593C37.6432 17.3788 37.4642 17.3952 36.798 17.3727C36.0732 17.3481 35.9891 17.3314 35.5989 17.1355C34.8536 16.7613 34.5403 16.1853 34.5403 15.1889C34.5403 14.0632 34.9609 13.4266 35.916 13.1066C36.2138 13.0068 36.4208 12.9875 36.9835 13.007C37.3674 13.0203 37.7847 13.0642 37.9108 13.1046ZM43.0756 13.1684C43.5874 13.4019 43.9323 13.8079 43.9323 14.1768V14.3418H43.2025C42.7583 14.3418 42.4727 14.3165 42.4727 14.2771C42.4727 14.1091 42.2114 13.9535 41.9291 13.9535C41.5779 13.9535 41.3939 14.0438 41.3939 14.2162C41.3939 14.38 41.5557 14.4422 42.2993 14.5643C43.3551 14.7376 43.7777 14.968 43.9671 15.4738C44.2682 16.2779 43.793 17.0663 42.8535 17.3213C42.3884 17.4475 41.3657 17.4166 40.8862 17.2618C40.238 17.0527 39.744 16.5326 39.744 16.0595V15.8952H40.4737C41.0897 15.8952 41.2035 15.9108 41.2035 15.9952C41.2035 16.0502 41.2737 16.1667 41.3593 16.254C41.4907 16.3881 41.5757 16.4129 41.9028 16.4129C42.3448 16.4129 42.5362 16.3346 42.5362 16.1534C42.5362 15.9814 42.2787 15.861 41.7112 15.7676C40.3479 15.5434 39.8709 15.1873 39.8709 14.3937C39.8709 13.9711 39.96 13.7474 40.2301 13.4916C40.6502 13.0939 41.0632 12.9824 42.0285 13.0058C42.6216 13.0203 42.8177 13.0508 43.0756 13.1684ZM48.0695 13.1419C48.2333 13.202 48.494 13.3649 48.6489 13.504C49.0325 13.8484 49.2062 14.2495 49.2569 14.9081L49.2979 15.4421H47.7611C46.9159 15.4421 46.2084 15.4682 46.1891 15.5001C46.119 15.6158 46.2375 15.9687 46.4093 16.1564C46.564 16.3252 46.6279 16.3482 46.9435 16.3482C47.3983 16.3482 47.6682 16.212 47.7182 15.9571L47.7557 15.7657H48.5093H49.2628L49.2614 15.9761C49.2577 16.5399 48.803 17.0454 48.1037 17.2633C47.7437 17.3754 47.5488 17.393 46.898 17.3724C46.2061 17.3504 46.078 17.3274 45.7213 17.1611C44.9419 16.7977 44.6 16.1825 44.6039 15.1508C44.6063 14.5243 44.7217 14.1506 45.0469 13.7157C45.2361 13.4627 45.6841 13.183 46.0854 13.0673C46.4825 12.9527 47.6765 12.9976 48.0695 13.1419ZM31.1195 14.1962C31.0169 14.294 30.9147 14.4397 30.8921 14.5198C30.8514 14.6646 30.8553 14.6654 31.5535 14.6654C31.9398 14.6654 32.2772 14.6635 32.3034 14.6611C32.363 14.6558 32.3355 14.4824 32.2463 14.3004C32.1555 14.1151 31.929 14.0182 31.5875 14.0182C31.3678 14.0182 31.2649 14.0573 31.1195 14.1962ZM36.3376 14.2433C36.1437 14.4411 36.0703 14.6786 36.2061 14.6688C36.2323 14.667 36.5536 14.6654 36.92 14.6654C37.5523 14.6654 37.5864 14.6586 37.5864 14.531C37.5864 14.4571 37.5029 14.3114 37.4009 14.2074C37.2436 14.047 37.1653 14.0182 36.8868 14.0182C36.5964 14.0182 36.5327 14.0443 36.3376 14.2433ZM46.5411 14.1085C46.3869 14.1957 46.2231 14.4377 46.219 14.5845C46.2174 14.6447 46.4039 14.6654 46.9466 14.6654C47.643 14.6654 47.6763 14.6593 47.6763 14.531C47.6763 14.4571 47.5929 14.3114 47.4909 14.2074C47.3361 14.0495 47.2546 14.0186 46.9991 14.0204C46.8306 14.0217 46.6245 14.0614 46.5411 14.1085ZM8.17308 19.0789C9.93883 19.6729 11.2815 19.9271 13.1592 20.0231L14.0748 20.0698L15.7111 23.3707C17.6044 27.1899 17.8509 27.7472 18.7935 30.3372C19.8771 33.3145 20.3858 34.4454 21.231 35.7562C21.8811 36.7643 22.7461 37.8083 23.3807 38.3506C23.7165 38.6376 23.782 38.6655 24.4277 38.7946C25.9498 39.099 27.483 39.2362 30.1207 39.3041C31.4072 39.3372 31.8269 39.3656 31.6212 39.4057C31.4641 39.4364 30.1505 39.4476 28.7021 39.4308C26.0473 39.3999 25.3964 39.3537 23.9261 39.0917L23.3067 38.9813L22.8138 38.4573C21.7762 37.3544 20.6737 35.7388 19.9168 34.2118C19.3891 33.1472 19.0971 32.4155 18.2636 30.0695C17.6395 28.3131 17.2887 27.4328 16.8903 26.623L16.6435 26.1214H16.3398C16.1728 26.1214 15.4378 26.0918 14.7064 26.0556C6.98805 25.6736 3.02401 25.0186 2.26174 23.9993C1.99261 23.6394 1.9282 23.3676 1.92516 22.5803C1.92275 21.9619 2.11496 20.0193 2.20882 19.7125C2.2264 19.6552 2.47078 19.5397 2.79455 19.4356C3.10017 19.3375 3.62148 19.1685 3.95306 19.06C4.92645 18.7417 5.29953 18.683 6.23758 18.7003C7.08971 18.7159 7.09999 18.7179 8.17308 19.0789ZM63.1674 18.8043C63.468 18.8721 64.181 19.0841 64.7519 19.2753L65.79 19.623L65.8357 19.8464C66.0466 20.8781 66.1731 22.8794 66.0613 23.4164C65.9795 23.8092 65.5854 24.2527 65.1031 24.4948C63.9894 25.0541 61.1716 25.5219 57.0683 25.829C55.6813 25.9328 52.2431 26.1193 51.692 26.1206L51.3608 26.1214L51.0455 26.7949C50.6665 27.6043 50.1775 28.8598 49.6442 30.3931C48.2624 34.3657 47.1767 36.3179 45.0646 38.6278L44.7255 38.9986L43.6784 39.158C42.135 39.3929 41.0883 39.4548 38.725 39.4506C35.9692 39.4458 35.5248 39.3651 37.9207 39.3046C40.506 39.2393 41.985 39.1065 43.615 38.7934L44.3447 38.6532L45.0776 37.905C46.2358 36.7226 47.0979 35.4512 47.867 33.7911C48.2792 32.9017 48.6273 32.0135 49.4798 29.6772C50.2648 27.5254 50.4085 27.2059 52.3294 23.3383L53.9528 20.0698L54.8284 20.0266C56.7026 19.9341 57.9721 19.7005 59.7018 19.1301C61.1276 18.6599 60.9597 18.6944 61.8595 18.6872C62.3938 18.6828 62.7839 18.7178 63.1674 18.8043ZM37.4594 19.8079V20.4199L37.8878 20.439L38.3161 20.4581L38.3345 20.9921L38.353 21.5261H37.9062H37.4594V22.4845C37.4594 23.6325 37.4751 23.6689 37.9893 23.7123L38.3479 23.7427V24.1847V24.6267L38.1099 24.6941C37.7086 24.8078 36.767 24.7769 36.4758 24.6405C35.9416 24.3903 35.873 24.1673 35.873 22.6814V21.5261H35.5874H35.3018V20.9793V20.4326L35.6298 20.413L35.9577 20.3934L36.1146 19.7947L36.2714 19.196H36.8654H37.4594V19.8079ZM3.8934 20.5699C3.34804 21.6997 3.5452 22.9818 4.40006 23.8648C5.12261 24.611 6.06872 24.8664 7.01096 24.5696C7.69765 24.3533 8.2849 23.8658 8.59286 23.2564L8.71604 23.0128L8.41283 23.2502C8.24606 23.3808 7.95256 23.5633 7.7606 23.6557C7.45396 23.8033 7.33066 23.8237 6.74525 23.8237C6.12792 23.8237 6.04759 23.8086 5.6523 23.6176C5.07063 23.3366 4.63638 22.9069 4.36224 22.341C4.08067 21.7598 3.97888 21.1478 4.07306 20.6024C4.11056 20.3854 4.13017 20.1965 4.11672 20.1828C4.10326 20.1691 4.00281 20.3432 3.8934 20.5699ZM63.9065 20.361C63.9324 20.4856 63.9515 20.8351 63.949 21.1377C63.9416 22.0053 63.5989 22.7174 62.9126 23.2907C62.4323 23.6919 62.0284 23.8237 61.2883 23.8206C60.529 23.8174 60.0966 23.6714 59.6449 23.2659C59.3179 22.9724 59.274 23.0194 59.5136 23.4065C60.2435 24.5858 61.6809 25.0161 62.8735 24.4122C63.6154 24.0365 64.0689 23.487 64.3137 22.6672C64.5377 21.9169 64.3852 20.8245 63.9827 20.2963L63.8594 20.1345L63.9065 20.361ZM28.317 20.5169C28.7186 20.6677 29.0149 20.9199 29.1518 21.2273C29.2516 21.4515 29.2707 21.6582 29.2718 22.5325C29.2733 23.6537 29.2936 23.7267 29.6032 23.7267H29.7809V24.2067V24.6868L29.4605 24.7568C29.2843 24.7954 29.0467 24.8269 28.9326 24.8269C28.604 24.8269 28.1051 24.6496 27.9451 24.4759L27.7986 24.3167L27.473 24.5033C27.014 24.7661 26.4164 24.8673 25.8691 24.7748C25.147 24.6528 24.8311 24.3006 24.8311 23.6179C24.8311 23.105 24.9378 22.8356 25.2422 22.5796C25.5684 22.3055 26.1256 22.1582 26.9728 22.1224L27.6867 22.0923V21.9033C27.6867 21.6214 27.436 21.3966 27.1215 21.3966C26.8093 21.3966 26.5591 21.5065 26.5097 21.6653C26.4761 21.7733 26.395 21.785 25.6764 21.785H24.8804L24.9246 21.5422C25.022 21.0062 25.3961 20.6625 26.1018 20.4607C26.5604 20.3295 27.9092 20.3638 28.317 20.5169ZM42.2947 20.5207C42.6904 20.6654 43.1379 21.077 43.344 21.4857C43.5616 21.9171 43.6194 22.8081 43.4649 23.3501C43.1699 24.3853 42.0754 24.9511 40.7378 24.7599C39.6053 24.598 38.9762 23.9209 38.8761 22.7558C38.7948 21.8105 39.1911 21.0096 39.934 20.6174C40.4499 20.3449 41.6771 20.2946 42.2947 20.5207ZM31.875 21.904C31.9067 23.3485 31.907 23.3502 32.0645 23.4801C32.262 23.6431 32.6558 23.6062 32.8521 23.4063C32.9774 23.2786 32.9875 23.1841 33.0173 21.8642L33.049 20.4581L33.8264 20.4399L34.6038 20.4218V22.5619V24.702L33.9552 24.6836L33.3066 24.6651L33.252 24.3825L33.1973 24.0999L32.9962 24.2983C32.3257 24.96 31.0026 24.935 30.559 24.2521C30.3205 23.8848 30.2893 23.624 30.2889 21.9933L30.2886 20.4218L31.0659 20.4399L31.8433 20.4581L31.875 21.904ZM40.779 21.5838C40.5382 21.7382 40.4429 22.0275 40.4424 22.606C40.442 23.0557 40.5149 23.3026 40.7111 23.5163C40.8178 23.6324 40.9142 23.6619 41.187 23.6619C41.824 23.6619 41.965 23.4575 41.965 22.5335C41.965 21.9486 41.9557 21.9059 41.7868 21.7129C41.5517 21.4447 41.0887 21.3854 40.779 21.5838ZM26.8618 22.9613C26.5602 23.0487 26.4176 23.1933 26.4176 23.4116C26.4176 23.6781 26.6552 23.8174 27.0355 23.7736C27.4147 23.7301 27.6867 23.4531 27.6867 23.1107V22.8853L27.3853 22.8911C27.2195 22.8943 26.9839 22.9259 26.8618 22.9613ZM11.5681 23.2736C11.5134 23.4038 11.473 23.6949 11.473 23.9583C11.473 24.3553 11.4986 24.4587 11.665 24.7332C11.784 24.9296 11.9752 25.1245 12.1677 25.246C12.4326 25.413 12.5398 25.4415 12.8958 25.4396C13.1657 25.4383 13.3852 25.3981 13.5165 25.3263C13.7199 25.215 14.17 24.782 14.17 24.6976C14.17 24.673 14.0089 24.7357 13.812 24.837C13.3793 25.0596 12.992 25.0751 12.5835 24.8862C12.0176 24.6246 11.7568 24.2156 11.6996 23.5001L11.6633 23.0471L11.5681 23.2736ZM56.3417 23.3005C56.3665 23.4355 56.3407 23.6687 56.2754 23.8992C56.0917 24.5479 55.4775 25.0267 54.8399 25.0183C54.5717 25.0147 54.1798 24.8752 54.0177 24.7257C53.8062 24.5305 53.8139 24.6721 54.0282 24.9211C54.7534 25.7635 56.0519 25.5515 56.4751 24.5216C56.5877 24.2473 56.5842 23.586 56.4687 23.3039C56.3513 23.0173 56.2893 23.0157 56.3417 23.3005ZM46.1533 26.1716C46.1533 26.4809 46.0255 27.4222 45.8963 28.0631C45.6141 29.4644 44.9251 31.1527 44.14 32.3672C42.3004 35.2125 39.4134 37.1927 36.1758 37.8299C33.0208 38.4508 29.7394 37.7912 27.0522 35.9959C24.3881 34.2161 22.5159 31.4959 21.7764 28.3308C21.6446 27.7666 21.4711 26.5656 21.469 26.2023L21.4678 25.992H33.8105H46.1533V26.1716ZM11.0922 34.1476C13.376 34.253 17.0838 34.4918 17.7162 34.5744C17.9717 34.6077 17.9861 34.6192 17.8924 34.7146C17.7988 34.8102 17.6492 34.807 16.0595 34.6755C12.7404 34.4012 12.3458 34.3821 9.91821 34.3779C7.67226 34.3739 6.61047 34.4286 5.99726 34.5796C5.86006 34.6134 5.86597 34.6258 6.10521 34.8052C6.64086 35.207 6.85992 36.1471 6.57176 36.8074C6.30612 37.4162 5.51358 37.9087 4.82321 37.8939L4.49246 37.8868L4.76965 37.8312C5.38463 37.708 5.93926 37.2742 6.15489 36.7478C6.28175 36.4381 6.2754 35.8627 6.14144 35.5219C6.07925 35.3639 5.8989 35.1234 5.71868 34.9581C5.3614 34.6305 5.36845 34.6307 4.49246 34.9078C3.88243 35.1006 3.50338 35.2898 3.10429 35.6005C2.81003 35.8296 2.8073 35.8303 2.89818 35.6532C3.02078 35.4145 3.3566 35.0718 3.65968 34.8763C4.72167 34.1913 7.06287 33.9618 11.0922 34.1476ZM62.1767 34.21C63.7351 34.4247 64.7207 34.9043 65.1233 35.6434L65.2778 35.927L65.0046 35.6773C64.6656 35.3675 64.0032 35.0452 63.2572 34.8271L62.6878 34.6606L62.4338 34.8428C61.9127 35.2162 61.6544 35.9536 61.8225 36.5877C61.9793 37.1796 62.5677 37.6807 63.2873 37.8354C63.5534 37.8926 63.5425 37.8954 63.1276 37.8762C62.0223 37.8254 61.2632 37.0421 61.3347 36.0265C61.3521 35.7791 61.4196 35.4932 61.4972 35.3383C61.6331 35.0669 62.025 34.6681 62.1631 34.6608C62.4067 34.6478 61.8768 34.5396 61.1931 34.4628C60.0882 34.3386 56.0035 34.3557 54.2761 34.4918C53.5606 34.5482 52.3532 34.6442 51.5929 34.7052C50.5504 34.7887 50.1927 34.7977 50.1375 34.7415C50.0974 34.7005 50.0838 34.6474 50.1073 34.6234C50.1731 34.5563 53.4663 34.3187 56.6875 34.1486C58.0126 34.0786 61.5072 34.1177 62.1767 34.21ZM16.8199 36.3588C18.8927 36.4361 18.9329 36.4402 19.0677 36.5865C19.1431 36.6684 19.1869 36.7539 19.1649 36.7763C19.1429 36.7986 18.5598 36.7557 17.8691 36.6809C16.7012 36.5542 15.2992 36.426 13.5354 36.2846L12.8056 36.2261L13.7575 36.2531C14.281 36.2679 15.6591 36.3155 16.8199 36.3588ZM54.4665 36.2919C53.1561 36.3912 50.0704 36.6798 49.4373 36.7622C49.0971 36.8065 48.8186 36.8227 48.8186 36.7981C48.8186 36.7735 48.8743 36.6812 48.9425 36.5928L49.0664 36.4323L51.4333 36.3537C52.7351 36.3106 53.8715 36.2668 53.9588 36.2564C54.0461 36.246 54.3602 36.2374 54.6568 36.237C55.1832 36.2365 55.1785 36.2379 54.4665 36.2919ZM21.8168 39.9349C26.0896 40.1743 26.9949 40.1934 34.0644 40.1936C41.1408 40.1936 41.9871 40.1756 46.1216 39.9359C47.0291 39.8833 48.0928 39.8218 48.4855 39.7992C49.0137 39.7689 49.1994 39.778 49.1994 39.8344C49.1994 39.8764 49.1351 39.9345 49.0566 39.9637C48.9218 40.0138 46.8481 40.1342 43.0438 40.3129C40.7194 40.422 27.2443 40.4212 24.958 40.3118C21.2075 40.1323 19.2677 40.029 19.0722 39.9985C18.9307 39.9764 18.8659 39.931 18.8659 39.8538C18.8659 39.7516 18.9199 39.7456 19.4529 39.7883C19.7757 39.8142 20.8395 39.8801 21.8168 39.9349ZM4.98426 40.9211C4.94067 40.9391 4.86928 40.9391 4.82562 40.9211C4.78202 40.9032 4.81769 40.8885 4.90494 40.8885C4.9922 40.8885 5.02793 40.9032 4.98426 40.9211ZM63.2066 40.9174C63.1856 40.9389 63.1308 40.9412 63.085 40.9225C63.0344 40.9018 63.0494 40.8865 63.1234 40.8834C63.1903 40.8806 63.2277 40.8959 63.2066 40.9174ZM8.55384 41.2031C14.1553 41.7129 16.8154 41.7527 18.5689 41.3528C18.807 41.2986 19.0185 41.2711 19.0389 41.292C19.0995 41.3539 18.5141 41.5907 18.0554 41.69C17.2232 41.8699 15.6752 41.9332 14.0569 41.8533C11.7291 41.7386 8.55016 41.432 6.26931 41.1025C5.24546 40.9546 5.22287 40.9483 5.8251 40.9796C6.17412 40.9976 7.40206 41.0982 8.55384 41.2031ZM62.2719 41.0411C59.1956 41.4654 55.8437 41.7792 53.2607 41.8848C52.1785 41.9291 50.7204 41.8386 49.9712 41.6807C49.5132 41.5843 48.9626 41.3571 49.0271 41.2913C49.0438 41.2742 49.2393 41.3029 49.4616 41.355C50.3114 41.5543 51.1378 41.6168 52.8483 41.6112C54.6454 41.6053 56.044 41.5195 59.5115 41.2023C62.0656 40.9687 62.0923 40.9666 62.5258 40.9618C62.8042 40.9587 62.7528 40.9748 62.2719 41.0411Z" fill="white"/>
</svg>
