<svg width="54" height="94" viewBox="0 0 54 94" fill="none" xmlns="http://www.w3.org/2000/svg">
<path fill-rule="evenodd" clip-rule="evenodd" d="M9.92891 0H44.0711C46.7025 0.00606102 49.2244 1.04607 51.0851 2.89253C52.9459 4.73899 53.9939 7.24159 54 9.85287V84.1471C53.9939 86.7584 52.9459 89.261 51.0851 91.1075C49.2244 92.9539 46.7025 93.9939 44.0711 94H9.92891C7.29747 93.9939 4.77557 92.9539 2.91486 91.1075C1.05415 89.261 0.0061078 86.7584 0 84.1471L0 9.85287C0.0061078 7.24159 1.05415 4.73899 2.91486 2.89253C4.77557 1.04607 7.29747 0.00606102 9.92891 0V0ZM12.334 12.3849L12.2415 12.6603H9.01156C6.25953 12.6603 7.07666 16.7376 7.07666 18.5965C7.09898 19.0782 7.29295 19.5364 7.62398 19.8893C7.7976 20.0784 8.00972 20.2286 8.24627 20.3302C8.48283 20.4317 8.73843 20.4822 8.99615 20.4784H11.9563C12.1031 21.1437 12.3041 21.7961 12.5576 22.429C12.7966 23.0563 13.0972 23.6836 13.3902 24.2879L11.0775 26.5828C10.8919 26.7521 10.744 26.9578 10.6431 27.187C10.5422 27.4162 10.4906 27.6638 10.4916 27.9139C10.4926 28.1675 10.5442 28.4184 10.6435 28.6521C10.7427 28.8858 10.8876 29.0977 11.0698 29.2756L13.9221 32.1366C14.1002 32.3199 14.3149 32.4642 14.5526 32.5604C14.7902 32.6566 15.0454 32.7024 15.3019 32.695C15.8192 32.6968 16.3189 32.5088 16.7049 32.1672L18.8403 30.0558C19.4092 30.4333 20.0102 30.7609 20.6364 31.035C21.2762 31.318 21.8775 31.5628 22.5328 31.8V35.0052C22.5261 35.5117 22.7199 36.0005 23.0724 36.3669C23.2499 36.5488 23.4635 36.6924 23.6996 36.7885C23.9357 36.8846 24.1894 36.9312 24.4445 36.9253H28.5225C29.0311 36.9225 29.5204 36.7316 29.8946 36.3898C30.0826 36.2159 30.2318 36.005 30.3327 35.7705C30.4336 35.536 30.4839 35.2831 30.4805 35.0282V32.0907C31.151 31.945 31.8084 31.7455 32.4463 31.494C33.0862 31.2547 33.7117 30.9788 34.3195 30.6678L36.6321 32.9627C36.8081 33.1488 37.0207 33.297 37.2567 33.3983C37.4927 33.4997 37.7471 33.5519 38.0043 33.5518C38.2605 33.552 38.5142 33.5021 38.751 33.4049C38.9877 33.3078 39.2029 33.1653 39.3842 32.9857L42.2672 30.1476C42.4494 29.9689 42.5931 29.7555 42.6898 29.5201C42.7865 29.2848 42.8342 29.0324 42.83 28.7783C42.8276 28.263 42.6325 27.7669 42.2826 27.3861L40.0857 25.3206C40.4664 24.7576 40.7941 24.1609 41.0647 23.5382C41.354 22.9245 41.6113 22.2964 41.8355 21.6564H45.0655C45.3191 21.6603 45.5709 21.6143 45.8064 21.5211C46.0419 21.4279 46.2565 21.2893 46.4377 21.1133C46.626 20.9429 46.7756 20.7348 46.8766 20.5027C46.9776 20.2705 47.0277 20.0197 47.0236 19.7669V15.7432C47.023 15.238 46.8303 14.7517 46.4839 14.3815C46.31 14.1913 46.0983 14.0388 45.8622 13.9335C45.6261 13.8282 45.3706 13.7724 45.1118 13.7695H42.1516C42.0437 13.3029 41.9049 12.8363 41.7507 12.3696H50.77V74.2637C48.8197 71.7469 46.9156 69.0466 45.0732 66.4839C42.2827 62.4525 43.2617 59.9663 43.4621 56.8758C43.9092 49.8381 40.1242 43.9401 32.6698 43.0527C40.764 56.4015 23.7276 61.7334 21.5846 47.4666C20.4766 48.9672 19.6856 50.6744 19.259 52.4858C18.8325 54.2973 18.7792 56.1756 19.1024 58.008C21.415 68.7176 32.8086 65.7878 36.8865 71.7775C38.9216 74.7533 41.0724 77.3618 42.9533 80.1922H3.31477V12.3849H12.334ZM38.4437 12.3849C39.1781 14.1385 39.4913 16.0376 39.3585 17.932C39.2256 19.8265 38.6504 21.6642 37.6782 23.3C36.7061 24.9357 35.3638 26.3245 33.7574 27.3566C32.151 28.3886 30.3247 29.0356 28.4228 29.2463C26.521 29.4571 24.5958 29.2258 22.7996 28.5707C21.0034 27.9157 19.3854 26.8548 18.0737 25.4722C16.7619 24.0895 15.7924 22.4229 15.2418 20.6042C14.6911 18.7855 14.5745 16.8646 14.9011 14.9935C15.055 14.0972 15.3137 13.2218 15.6719 12.3849H38.4437ZM26.9807 83.2827C27.7842 83.2827 28.5697 83.5192 29.2377 83.9621C29.9058 84.4051 30.4265 85.0347 30.734 85.7714C31.0415 86.508 31.1219 87.3186 30.9652 88.1006C30.8084 88.8826 30.4215 89.601 29.8534 90.1648C29.2852 90.7286 28.5613 91.1125 27.7733 91.2681C26.9852 91.4236 26.1684 91.3438 25.4261 91.0387C24.6837 90.7335 24.0493 90.2168 23.6029 89.5539C23.1565 88.8909 22.9182 88.1115 22.9182 87.3141C22.9223 86.2462 23.3516 85.2231 24.1126 84.4679C24.8736 83.7128 25.9045 83.2868 26.9807 83.2827Z" fill="#7AA0F8"/>
</svg>
