<svg width="24" height="24" viewBox="0 0 24 24" fill="none" xmlns="http://www.w3.org/2000/svg">
<g clip-path="url(#clip0_54_3927)">
<path d="M23.4607 20.8519L14.6024 11.9757L23.4126 3.14797C24.1311 2.42768 24.1311 1.26006 23.4126 0.540167C22.6938 -0.17973 21.5289 -0.17973 20.81 0.540167L11.9998 9.36788L3.19001 0.540167C2.47115 -0.17973 1.30624 -0.17973 0.58738 0.540167C-0.131482 1.26046 -0.131482 2.42807 0.58738 3.14797L9.39718 11.9757L0.53817 20.8519C-0.180692 21.5722 -0.180692 22.7394 0.53817 23.4597C0.897601 23.8199 1.36844 23.9998 1.83968 23.9998C2.31092 23.9998 2.78176 23.8199 3.14119 23.4597L11.9998 14.5835L20.858 23.4597C21.2175 23.8199 21.6883 23.9998 22.1595 23.9998C22.6308 23.9998 23.1016 23.8199 23.4611 23.4597C24.1791 22.7398 24.1791 21.5722 23.4607 20.8519Z" fill="white"/>
</g>
<defs>
<clipPath id="clip0_54_3927">
<rect width="24" height="24" fill="white"/>
</clipPath>
</defs>
</svg>
