<svg width="57" height="69" viewBox="0 0 57 69" fill="none" xmlns="http://www.w3.org/2000/svg">
<path d="M5.85284 20.2068C4.826 13.7672 9.60714 7.96829 16.9109 5.84654C18.2074 5.46901 19.6065 5.57589 20.8229 6.14538C22.0394 6.71486 22.9816 7.70407 23.4574 8.91129L25.7994 14.8563C26.1766 15.8129 26.2444 16.8549 25.9942 17.8485C25.744 18.842 25.1872 19.7418 24.3953 20.4323L17.4284 26.5054C17.0848 26.8055 16.8287 27.1851 16.6852 27.6072C16.5416 28.0293 16.5154 28.4796 16.6091 28.9142L16.6711 29.1807L16.8435 29.8495C16.9972 30.4158 17.2289 31.2102 17.5551 32.1557C18.2019 34.0392 19.2341 36.5709 20.7703 39.1001C22.3065 41.6319 24.0961 43.7459 25.4868 45.2219C26.2111 45.9891 26.9681 46.7277 27.7561 47.4359L27.9717 47.623C28.3199 47.9169 28.7423 48.1199 29.1976 48.2124C29.6529 48.305 30.1257 48.2837 30.5698 48.1509L39.5877 45.4525C40.612 45.146 41.7093 45.1374 42.7388 45.4278C43.7683 45.7181 44.6832 46.2943 45.366 47.0823L49.6324 52.01C51.4112 54.06 51.2009 57.0709 49.1553 58.8826C43.5657 63.8385 35.8792 64.8532 30.5321 60.766C23.9777 55.7392 18.4523 49.6084 14.232 42.6799C9.97646 35.7569 7.13365 28.1324 5.85284 20.2068ZM22.2553 29.2524L28.0391 24.2094C29.6219 22.8283 30.7347 21.0291 31.2346 19.0425C31.7345 17.0559 31.5987 14.9727 30.8447 13.06L28.4999 7.11497C27.5434 4.68605 25.6485 2.69542 23.2017 1.54887C20.7549 0.402319 17.9402 0.186166 15.3316 0.944474C6.26519 3.58641 -1.01702 11.3149 0.524584 20.9755C1.60263 27.72 4.09023 36.2993 9.57211 45.2578C14.1244 52.7284 20.0837 59.3387 27.1524 64.7584C35.1704 70.8854 45.8808 68.7944 52.8315 62.6315C54.8195 60.8692 56.0259 58.4523 56.2047 55.8736C56.3835 53.2948 55.5212 50.7483 53.7936 48.753L49.5273 43.8254C48.1617 42.2484 46.3317 41.0953 44.2721 40.5141C42.2125 39.9328 40.0172 39.95 37.9679 40.5633L30.4835 42.8029C30.1979 42.521 29.8637 42.1854 29.4998 41.7984C27.9616 40.1805 26.6007 38.4178 25.4383 36.5376C24.3067 34.6408 23.3811 32.6394 22.6758 30.5644C22.5262 30.1299 22.3861 29.6924 22.2553 29.2524Z" fill="#7AA0F8"/>
</svg>
