<svg width="24" height="24" viewBox="0 0 24 24" fill="none" xmlns="http://www.w3.org/2000/svg">
<path fill-rule="evenodd" clip-rule="evenodd" d="M21.6401 16.3468L18.2534 15.9601C17.4401 15.8668 16.6401 16.1468 16.0667 16.7201L13.6134 19.1734C9.84005 17.2534 6.74672 14.1734 4.82672 10.3868L7.29339 7.92009C7.86672 7.34676 8.14672 6.54676 8.05339 5.73343L7.66672 2.37343C7.50672 1.02676 6.37339 0.0134277 5.01339 0.0134277H2.70672C1.20005 0.0134277 -0.0532791 1.26676 0.0400542 2.77343C0.746721 14.1601 9.85339 23.2534 21.2267 23.9601C22.7334 24.0534 23.9867 22.8001 23.9867 21.2934V18.9868C24.0001 17.6401 22.9867 16.5068 21.6401 16.3468Z" fill="#7A9FF8"/>
</svg>
