<svg width="14" height="14" viewBox="0 0 14 14" fill="none" xmlns="http://www.w3.org/2000/svg">
<path fill-rule="evenodd" clip-rule="evenodd" d="M12.6232 9.53559L10.6477 9.31003C10.1732 9.25559 9.70658 9.41892 9.37213 9.75337L7.94102 11.1845C5.73991 10.0645 3.93547 8.26781 2.81547 6.05892L4.25435 4.62003C4.5888 4.28559 4.75213 3.81892 4.69769 3.34448L4.47213 1.38448C4.3788 0.598924 3.71769 0.0078125 2.92435 0.0078125H1.5788C0.69991 0.0078125 -0.0312016 0.738923 0.0232429 1.61781C0.435465 8.26003 5.74769 13.5645 12.3821 13.9767C13.261 14.0311 13.9921 13.3 13.9921 12.4211V11.0756C13.9999 10.29 13.4088 9.62892 12.6232 9.53559Z" fill="white"/>
</svg>
