<svg width="90" height="90" viewBox="0 0 90 90" fill="none" xmlns="http://www.w3.org/2000/svg">
<path fill-rule="evenodd" clip-rule="evenodd" d="M40.3761 0.172733C33.8191 1.06065 29.2686 2.41163 24.383 4.9202C12.9869 10.7722 4.45368 21.4473 1.3231 33.7688C0.266142 37.9286 -0.00105718 40.2158 3.13922e-06 45.0933C0.000886736 49.8895 0.144735 51.1808 1.18208 55.7101C3.26083 64.7874 9.11466 74.0205 16.6074 80.0398C25.2299 86.9667 35.369 90.3485 46.3846 89.9716C53.2763 89.7358 58.7636 88.3756 64.809 85.4047C77.1412 79.3437 86.191 67.6129 88.9453 54.1176C89.3718 52.0285 89.4808 51.3243 89.5889 49.9593C89.7204 48.301 89.4511 47.5722 88.4618 46.9106C87.7337 46.4234 87.0548 46.405 83.6012 46.7779C79.813 47.187 79.7245 47.2027 79.1257 47.5672C78.2759 48.0848 78.0078 48.6416 77.6558 50.6215C76.7862 55.5114 75.2515 59.3619 72.5396 63.4586C66.8775 72.0116 57.739 77.383 47.4449 78.2088C42.5146 78.6043 37.4862 77.8597 32.8626 76.0495C27.8294 74.079 23.1538 70.7896 19.8175 66.8717C15.5624 61.8747 13.1073 56.5952 11.9938 50.0478C11.6071 47.7742 11.6029 42.4499 11.986 40.0504C12.5441 36.553 13.436 33.7114 14.9572 30.5837C16.812 26.7699 18.6672 24.2124 21.7628 21.2028C23.0124 19.9879 24.7891 18.4576 25.7111 17.8022C27.7183 16.3753 32.0419 14.1824 34.3677 13.4118C38.454 12.0577 43.2929 11.4601 47.3143 11.813C49.8066 12.0315 53.06 12.6308 54.5222 13.1406C55.6401 13.5304 56.9475 13.4973 57.6619 13.0611C58.1172 12.7831 58.4466 12.2812 59.1414 10.8056C61.8691 5.01451 61.8267 5.14651 61.3361 3.97106C60.866 2.84444 59.8216 2.35112 55.6774 1.29846C53.7068 0.79806 52.6276 0.604658 49.7423 0.235194C47.5287 -0.0482733 42.2674 -0.0833081 40.3761 0.172733ZM77.0454 10.9372C76.4622 11.1107 74.6332 11.6305 72.9809 12.0925C71.3285 12.5545 69.6585 13.0937 69.2698 13.2905C68.8801 13.4877 67.3932 14.8479 65.9564 16.3212C63.9618 18.3661 63.215 19.2629 62.7755 20.14L62.201 21.2863L62.1126 26.2003L62.0243 31.1142L53.189 39.9617C48.3296 44.8279 44.3126 48.8092 44.2622 48.8092C44.212 48.8092 40.9114 45.5497 36.9276 41.5659C29.0988 33.7369 29.3087 33.9048 27.7237 34.2026C26.8014 34.3759 21.9563 39.2019 21.6386 40.2638C21.1613 41.8593 21.0879 41.7611 27.7437 48.4553C31.0819 51.8129 35.7339 56.5247 38.0814 58.9263C40.429 61.3278 42.6136 63.4179 42.9359 63.5711C43.6172 63.8947 44.8245 63.9356 45.3801 63.6537C45.5924 63.5461 51.293 57.9424 58.0481 51.2012L70.3301 38.9443L74.5713 38.7339C76.904 38.6182 79.1604 38.4453 79.5854 38.3499C81.1198 38.0054 81.9624 37.3963 84.378 34.8858C87.269 31.8811 87.6509 31.3651 88.0725 29.8926C88.3477 28.9318 89.6208 23.688 89.9615 22.1119C90.0887 21.5232 89.8853 20.7232 89.5783 20.6054C89.3458 20.516 86.1077 23.7013 82.3392 27.7266C81.251 28.889 80.5865 29.3451 79.9816 29.3451C79.3498 29.3451 76.3735 27.1765 74.6448 25.4566C72.6391 23.461 71.302 21.566 71.302 20.7192C71.302 20.076 71.5183 19.8229 76.6775 14.4307C78.2406 12.797 79.5472 11.3334 79.581 11.1784C79.7225 10.5313 78.7285 10.4368 77.0454 10.9372Z" fill="#7AA0F8"/>
</svg>
